<svg width="52" height="52" xmlns="http://www.w3.org/2000/svg" xmlns:xlink="http://www.w3.org/1999/xlink" xml:space="preserve" overflow="hidden"><defs><clipPath id="clip0"><rect x="28" y="138" width="52" height="52"/></clipPath></defs><g clip-path="url(#clip0)" transform="translate(-28 -138)"><path d="M61.8175 157.207 47.0047 157.207 38.8232 169.014 53.4204 169.014 61.8175 157.207Z" stroke="#231F20" stroke-width="2.02177" stroke-linecap="round" stroke-linejoin="round" fill="none"/><path d="M53.2452 168.825 43.7968 151.047" stroke="#231F20" stroke-width="2.02177" stroke-linecap="round" stroke-linejoin="round" fill="none"/><path d="M68.5702 168.893 58.4209 151.02 65.9285 151.02C67.4141 150.922 68.6979 152.047 68.796 153.532 68.7974 153.553 68.7984 153.574 68.7994 153.595L68.7994 153.851C68.7356 155.338 67.4781 156.492 65.9907 156.428 65.97 156.428 65.9492 156.426 65.9285 156.425" stroke="#231F20" stroke-width="2.02177" stroke-linecap="round" stroke-linejoin="round" fill="none"/><path d="M41.6133 150.993 48.5143 150.993" stroke="#231F20" stroke-width="2.02177" stroke-linecap="round" stroke-linejoin="round" fill="none"/><path d="M76.6978 168.893C76.6978 173.381 73.059 177.02 68.5702 177.02 64.0815 177.02 60.4427 173.381 60.4427 168.893 60.4427 164.404 64.0815 160.765 68.5702 160.765 73.059 160.765 76.6978 164.404 76.6978 168.893Z" stroke="#231F20" stroke-width="2.02177" stroke-linecap="round" stroke-linejoin="round" fill="none"/><path d="M47.5573 168.893C47.5573 173.381 43.9185 177.02 39.4298 177.02 34.941 177.02 31.3022 173.381 31.3022 168.893 31.3022 164.404 34.941 160.765 39.4298 160.765 43.9185 160.765 47.5573 164.404 47.5573 168.893Z" stroke="#231F20" stroke-width="2.02177" stroke-linecap="round" stroke-linejoin="round" fill="none"/></g></svg>