<svg width="52" height="52" xmlns="http://www.w3.org/2000/svg" xmlns:xlink="http://www.w3.org/1999/xlink" xml:space="preserve" overflow="hidden"><defs><clipPath id="clip0"><rect x="1065" y="424" width="52" height="52"/></clipPath></defs><g clip-path="url(#clip0)" transform="translate(-1065 -424)"><path d="M1072.75 462.885C1072.75 462.885 1088.44 456.753 1087.08 446.913L1079.5 437.681 1075.08 441.603 1072.75 439.891 1068.09 443.072" stroke="#231F20" stroke-width="2.02177" stroke-linecap="round" stroke-linejoin="round" fill="none"/><path d="M1078.48 465.217C1078.48 465.217 1094.13 455.58 1087.15 447.021" stroke="#231F20" stroke-width="2.02177" stroke-linecap="round" stroke-linejoin="round" fill="none"/><path d="M1083.32 442.263C1083.32 442.263 1094.1 441.05 1099.63 447.655 1104.13 452.636 1106.55 459.163 1106.37 465.878" stroke="#231F20" stroke-width="2.02177" stroke-linecap="round" stroke-linejoin="round" fill="none"/><path d="M1097.21 445.417C1097.21 445.417 1104.28 448.773 1112.59 465.783" stroke="#231F20" stroke-width="2.02177" stroke-linecap="round" stroke-linejoin="round" fill="none"/><path d="M1082.19 439.837 1095.16 434.176 1102.42 439.15 1106.15 437.64 1113.91 447.695" stroke="#231F20" stroke-width="2.02177" stroke-linecap="round" stroke-linejoin="round" fill="none"/><path d="M1089.38 445.202C1089.86 445.365 1090.31 445.592 1090.73 445.876" stroke="#231F20" stroke-width="2.02177" stroke-linecap="round" stroke-linejoin="round" fill="none"/><path d="M1093.14 448.046C1093.65 448.443 1094.07 448.938 1094.38 449.501" stroke="#231F20" stroke-width="2.02177" stroke-linecap="round" stroke-linejoin="round" fill="none"/><path d="M1095.87 452.965C1096.17 454.091 1096.21 455.27 1096 456.416" stroke="#231F20" stroke-width="2.02177" stroke-linecap="round" stroke-linejoin="round" fill="none"/><path d="M1095.27 460.163C1094.92 461.632 1093.66 465.217 1093.66 465.217" stroke="#231F20" stroke-width="2.02177" stroke-linecap="round" stroke-linejoin="round" fill="none"/></g></svg>