<svg width="52" height="52" xmlns="http://www.w3.org/2000/svg" xmlns:xlink="http://www.w3.org/1999/xlink" xml:space="preserve" overflow="hidden"><defs><clipPath id="clip0"><rect x="936" y="138" width="52" height="52"/></clipPath></defs><g clip-path="url(#clip0)" transform="translate(-936 -138)"><path d="M976.611 150.548C979.005 154.659 977.613 159.932 973.503 162.326 969.393 164.72 964.12 163.329 961.726 159.218 959.332 155.108 960.723 149.835 964.833 147.441 964.837 147.439 964.84 147.437 964.844 147.435 968.948 145.044 974.212 146.432 976.603 150.536 976.606 150.54 976.608 150.544 976.611 150.548Z" stroke="#231F20" stroke-width="2.02177" stroke-linecap="round" stroke-linejoin="round" fill="none"/><path d="M971.583 152.948C971.583 154.295 970.491 155.387 969.144 155.387 967.796 155.387 966.704 154.295 966.704 152.948 966.704 151.6 967.796 150.508 969.144 150.508 970.491 150.508 971.583 151.6 971.583 152.948Z" stroke="#231F20" stroke-width="2.02177" stroke-linecap="round" stroke-linejoin="round" fill="none"/><path d="M965.882 158.46 965.882 157.018C965.896 156.116 966.624 155.388 967.526 155.374L970.774 155.374C971.666 155.402 972.378 156.126 972.392 157.018L972.392 158.46" stroke="#231F20" stroke-width="2.02177" stroke-linecap="round" stroke-linejoin="round" fill="none"/><path d="M962.323 170.861C964.678 174.993 963.237 180.253 959.104 182.608 954.972 184.963 949.712 183.522 947.357 179.389 945.007 175.264 946.438 170.014 950.557 167.653 954.692 165.291 959.959 166.726 962.323 170.861Z" stroke="#231F20" stroke-width="2.02177" stroke-linecap="round" stroke-linejoin="round" fill="none"/><path d="M957.296 173.26C957.296 174.607 956.204 175.699 954.856 175.699 953.509 175.699 952.417 174.607 952.417 173.26 952.417 171.912 953.509 170.82 954.856 170.82 956.204 170.82 957.296 171.912 957.296 173.26Z" stroke="#231F20" stroke-width="2.02177" stroke-linecap="round" stroke-linejoin="round" fill="none"/><path d="M951.608 178.786 951.608 177.33C951.644 176.451 952.359 175.753 953.239 175.74L956.487 175.74C957.384 175.754 958.11 176.474 958.132 177.371L958.132 178.826" stroke="#231F20" stroke-width="2.02177" stroke-linecap="round" stroke-linejoin="round" fill="none"/><path d="M983.754 173.138C986.135 177.257 984.726 182.525 980.608 184.905 976.49 187.286 971.222 185.877 968.841 181.759 966.461 177.641 967.869 172.373 971.987 169.992 971.992 169.99 971.996 169.987 972.001 169.984 976.113 167.609 981.373 169.016 983.749 173.129 983.751 173.132 983.752 173.135 983.754 173.138Z" stroke="#231F20" stroke-width="2.02177" stroke-linecap="round" stroke-linejoin="round" fill="none"/><path d="M978.74 175.538C978.74 176.885 977.648 177.977 976.301 177.977 974.953 177.977 973.861 176.885 973.861 175.538 973.861 174.19 974.953 173.098 976.301 173.098 977.648 173.098 978.74 174.19 978.74 175.538Z" stroke="#231F20" stroke-width="2.02177" stroke-linecap="round" stroke-linejoin="round" fill="none"/><path d="M973.039 181.05 973.039 179.608C973.053 178.711 973.773 177.985 974.67 177.964L977.932 177.964C978.828 177.985 979.548 178.711 979.562 179.608L979.562 181.05" stroke="#231F20" stroke-width="2.02177" stroke-linecap="round" stroke-linejoin="round" fill="none"/><path d="M955.153 148.23C957.03 151.469 956.599 155.549 954.088 158.326 953.489 158.989 952.789 159.553 952.012 159.997 947.896 162.38 942.627 160.974 940.244 156.858 937.861 152.741 939.266 147.472 943.383 145.089 947.5 142.706 952.769 144.111 955.152 148.228 955.152 148.229 955.153 148.229 955.153 148.23Z" stroke="#231F20" stroke-width="2.02177" stroke-linecap="round" stroke-linejoin="round" fill="none"/><path d="M950.139 150.643C950.139 151.99 949.047 153.082 947.699 153.082 946.352 153.082 945.26 151.99 945.26 150.643 945.26 149.295 946.352 148.203 947.699 148.203 949.047 148.203 950.139 149.295 950.139 150.643Z" stroke="#231F20" stroke-width="2.02177" stroke-linecap="round" stroke-linejoin="round" fill="none"/><path d="M944.438 156.156 944.438 154.713C944.452 153.816 945.172 153.091 946.068 153.069L949.33 153.069C950.227 153.091 950.947 153.816 950.961 154.713L950.961 156.156" stroke="#231F20" stroke-width="2.02177" stroke-linecap="round" stroke-linejoin="round" fill="none"/><path d="M950.422 161.412 952.659 166.426" stroke="#231F20" stroke-width="2.02177" stroke-linecap="round" stroke-linejoin="round" fill="none"/><path d="M960.76 167.787 964.44 162.76" stroke="#231F20" stroke-width="2.02177" stroke-linecap="round" stroke-linejoin="round" fill="none"/><path d="M974.05 162.005 977.648 168.461" stroke="#231F20" stroke-width="2.02177" stroke-linecap="round" stroke-linejoin="round" fill="none"/></g></svg>