<svg width="52" height="52" xmlns="http://www.w3.org/2000/svg" xmlns:xlink="http://www.w3.org/1999/xlink" xml:space="preserve" overflow="hidden"><defs><clipPath id="clip0"><rect x="287" y="210" width="52" height="52"/></clipPath></defs><g clip-path="url(#clip0)" transform="translate(-287 -210)"><path d="M306.854 245.812 323.985 245.812" stroke="#231F20" stroke-width="2.02177" stroke-linecap="round" stroke-linejoin="round" fill="none"/><path d="M334.485 233.48 326.883 233.48 326.883 226.686" stroke="#231F20" stroke-width="2.02177" stroke-linecap="round" stroke-linejoin="round" fill="none"/><path d="M323.958 246.594C323.951 248.135 325.194 249.39 326.735 249.398 328.275 249.405 329.531 248.162 329.538 246.621 329.546 245.08 328.302 243.825 326.762 243.818 326.753 243.818 326.744 243.818 326.735 243.818 325.201 243.818 323.958 245.061 323.958 246.594Z" stroke="#231F20" stroke-width="2.02177" stroke-linecap="round" stroke-linejoin="round" fill="none"/><path d="M301.382 246.594C301.374 248.135 302.617 249.39 304.158 249.398 305.699 249.405 306.954 248.162 306.962 246.621 306.969 245.08 305.726 243.825 304.185 243.818 304.176 243.818 304.167 243.818 304.158 243.818 302.625 243.818 301.382 245.061 301.382 246.594Z" stroke="#231F20" stroke-width="2.02177" stroke-linecap="round" stroke-linejoin="round" fill="none"/><path d="M293.335 246.594C293.327 248.135 294.571 249.39 296.111 249.398 297.652 249.405 298.908 248.162 298.915 246.621 298.922 245.08 297.679 243.825 296.138 243.818 296.129 243.818 296.12 243.818 296.111 243.818 294.578 243.818 293.335 245.061 293.335 246.594Z" stroke="#231F20" stroke-width="2.02177" stroke-linecap="round" stroke-linejoin="round" fill="none"/><path d="M290.167 243.09 290.167 246.19 293.254 246.19" stroke="#231F20" stroke-width="2.02177" stroke-linecap="round" stroke-linejoin="round" fill="none"/><path d="M323.891 240.744 330.63 240.744 332.638 246.244 335.913 246.271 335.913 235.501 331.263 226.552 323.796 226.552 323.891 240.744" stroke="#231F20" stroke-width="2.02177" stroke-linecap="round" stroke-linejoin="round" fill="none"/><path d="M298.969 246.176 301.328 246.176" stroke="#231F20" stroke-width="2.02177" stroke-linecap="round" stroke-linejoin="round" fill="none"/><path d="M296.866 226.107 296.866 237.267" stroke="#231F20" stroke-width="2.02177" stroke-linecap="round" stroke-linejoin="round" fill="none"/><path d="M305.641 226.107 305.641 237.267" stroke="#231F20" stroke-width="2.02177" stroke-linecap="round" stroke-linejoin="round" fill="none"/><path d="M314.415 226.107 314.415 237.267" stroke="#231F20" stroke-width="2.02177" stroke-linecap="round" stroke-linejoin="round" fill="none"/><path d="M290.087 222.629 320.548 222.629 320.548 240.731 290.087 240.731Z" stroke="#231F20" stroke-width="2.02177" stroke-linecap="round" stroke-linejoin="round" fill="none"/></g></svg>