<svg width="52" height="52" xmlns="http://www.w3.org/2000/svg" xmlns:xlink="http://www.w3.org/1999/xlink" xml:space="preserve" overflow="hidden"><defs><clipPath id="clip0"><rect x="676" y="282" width="52" height="52"/></clipPath></defs><g clip-path="url(#clip0)" transform="translate(-676 -282)"><path d="M710.316 292.015C713.763 292.015 716.557 294.809 716.557 298.255L716.557 316.977C716.557 320.423 713.763 323.217 710.316 323.217L693.684 323.217C690.237 323.217 687.443 320.423 687.443 316.977L687.443 298.255C687.443 294.809 690.237 292.015 693.684 292.015Z" stroke="#231F20" stroke-width="2.02177" stroke-linecap="round" stroke-linejoin="round" fill="none"/><path d="M696.447 315.696C696.447 317.044 695.355 318.136 694.007 318.136 692.66 318.136 691.568 317.044 691.568 315.696 691.568 314.349 692.66 313.257 694.007 313.257 695.355 313.257 696.447 314.349 696.447 315.696Z" stroke="#231F20" stroke-width="2.02177" stroke-linecap="round" stroke-linejoin="round" fill="none"/><path d="M712.392 315.696C712.399 317.051 711.307 318.155 709.952 318.163 708.598 318.17 707.493 317.078 707.486 315.723 707.478 314.368 708.571 313.264 709.925 313.257 709.93 313.257 709.934 313.257 709.939 313.257 711.288 313.257 712.385 314.347 712.392 315.696Z" stroke="#231F20" stroke-width="2.02177" stroke-linecap="round" stroke-linejoin="round" fill="none"/><path d="M702 305.776 702 298.161" stroke="#231F20" stroke-width="2.02177" stroke-linecap="round" stroke-linejoin="round" fill="none"/><path d="M693.616 286.731C694.519 284.992 695.234 285.1 697.202 285.1L706.798 285.1C708.766 285.1 709.575 285.289 710.384 286.731" stroke="#231F20" stroke-width="2.02177" stroke-linecap="round" stroke-linejoin="round" fill="none"/><path d="M698.105 288.726 698.105 285.585" stroke="#231F20" stroke-width="2.02177" stroke-linecap="round" stroke-linejoin="round" fill="none"/><path d="M705.895 288.726 705.895 285.585" stroke="#231F20" stroke-width="2.02177" stroke-linecap="round" stroke-linejoin="round" fill="none"/><path d="M687.591 306.019 716.409 306.019" stroke="#231F20" stroke-width="2.02177" stroke-linecap="round" stroke-linejoin="round" fill="none"/><path d="M687.591 297.864 716.409 297.864" stroke="#231F20" stroke-width="2.02177" stroke-linecap="round" stroke-linejoin="round" fill="none"/><path d="M692.902 327.032 691.204 330.913" stroke="#231F20" stroke-width="2.02177" stroke-linecap="round" stroke-linejoin="round" fill="none"/><path d="M711.111 327.032 712.81 330.913" stroke="#231F20" stroke-width="2.02177" stroke-linecap="round" stroke-linejoin="round" fill="none"/></g></svg>